<svg xmlns="http://www.w3.org/2000/svg" xmlns:xlink="http://www.w3.org/1999/xlink" viewBox="0 0 1030.43 351.1"><defs><style>.cls-1{fill:url(#linear-gradient);}</style><linearGradient id="linear-gradient" x1="-64.93" y1="40.83" x2="1126.99" y2="317.57" gradientUnits="userSpaceOnUse"><stop offset="0" stop-color="#dc7dff"/><stop offset="1" stop-color="#44c69e"/></linearGradient></defs><title>Ponjika logo</title><g id="Layer_2" data-name="Layer 2"><g id="Layer_1-2" data-name="Layer 1"><path class="cls-1" d="M964.53,176c-.22,8.78-6.52,10.55-13.82,11.13-1,7.71-2.88,14.8-12.46,14.45-8.51-.31-10.84-6.32-11-13.94-2.17-.44-4.69-.21-5.88-1.36-3.24-3.12-8.08-6.77-8.19-10.33s4.21-7.89,7.53-10.8c2.42-2.12,6.87-.88,7.31-6.54.48-6.13,5.17-9.5,11.63-8.94,8,.68,10.24,6.3,10.78,13.9C958.32,164.66,964.76,166.78,964.53,176Zm65.81,67.24c0,17.95-14.82,29.05-29.76,22.19-5-2.29-8.94-6.87-13.93-10.87-39.26,22.49-89.33,15.82-119.31-21.2-26.63-32.87-27.08-80.71-1.44-113.73,28.78-37,79-46.68,118.62-24.27,9.36-4.29,16.76-9.6,24.79-10.88,10.41-1.66,19.15,7.18,20.66,17.78a41.94,41.94,0,0,1,.41,6C1030.4,153.29,1030.51,198.27,1030.34,243.25ZM987,175.75c0-26.66-21.67-48.62-48.1-48.66s-48.51,21.94-48.61,48.4S912,224,938.58,224A48.07,48.07,0,0,0,987,175.75Zm-36.52-12.17c-.54-7.6-2.83-13.22-10.78-13.9-6.46-.56-11.15,2.81-11.63,8.94-.44,5.66-4.89,4.42-7.31,6.54-3.32,2.91-7.64,7.21-7.53,10.8s5,7.21,8.19,10.33c1.19,1.15,3.71.92,5.88,1.36.16,7.62,2.49,13.63,11,13.94,9.58.35,11.5-6.74,12.46-14.45,7.3-.58,13.6-2.35,13.82-11.13C964.76,166.78,958.32,164.66,950.43,163.58ZM726.76,181.93q12.3-15.31,24.58-30.63,23-28.68,45.92-57.37c9.07-11.25,21.77-13.29,31.68-5.29,10.25,8.28,10.73,21.62,1.46,32.83-13.41,16.21-26.48,32.69-40.07,48.74-3.64,4.3-3.11,7.06.19,11,13.49,16.13,26.7,32.5,40.06,48.75,9.21,11.2,8.5,24.61-1.82,32.8-9.94,7.88-22.56,5.62-31.63-5.72-12.39-15.5-24.73-31-37.77-47.41-13.14,16.62-25.63,32.64-38.36,48.47-9.52,11.85-25.37,12.63-34.13,1.22A25.14,25.14,0,0,1,682,245.12q-.51-83.44-.14-166.9c0-13.4,8.81-22,21.37-22.11,12.84-.06,21.72,9,21.77,22.71.12,31.42,0,62.83,0,94.25v8.24Zm-620.25-.62c-15.1,2.81-31,1.43-46.51,1.86-5.13.14-10.28,0-16.71,0,0,20.72,0,40,0,59.31,0,15.13-8.41,24.75-21.47,24.75S.06,257.64,0,242.59Q0,161.73,0,80.85c0-16.87,8-24.72,25-24.75,22.79,0,45.55-.21,68.33,0,32.08.35,58.22,24.36,61.85,56.38S137.83,175.48,106.51,181.31Zm5.75-61.66c0-9.83-8-19.72-17.79-20.05C77.85,99,61.2,99.44,43.9,99.44v40.11c17.51,0,34.44.47,51.34-.18C104.66,139,112.25,129.28,112.26,119.65ZM389.8,174.78c0-22.21.18-44.42-.09-66.62-.12-9.9,3.16-17.66,12.17-22,8.58-4.15,16.61-2.43,24.31,3.24A10.72,10.72,0,0,0,435,90.54c55.21-22.35,110,14.23,110,73.67q0,39.36,0,78.73c0,14.61-8.32,24.09-21.13,24.32-13.21.23-22-9.21-22.08-24.25-.14-26.53,0-53.06-.06-79.6,0-20.53-14.5-36-33.83-36.31S433,142.6,432.8,163.23c-.21,26.82,0,53.65-.07,80.47,0,14.36-8.72,23.72-21.69,23.56-12.64-.16-21.18-9.42-21.22-23.26C389.75,220.92,389.8,197.85,389.8,174.78Zm210.6,18.51c0,27.69.11,55.38,0,83.06-.2,41.22-36,75.77-77.12,74.73-12.51-.32-21.1-8.13-21.83-19.86-.77-12.26,7.07-21.38,19.67-22.88,26-3.1,36.28-14.76,36.28-41.08q0-80.46,0-160.93c0-10.54,5.31-18,14.53-21.18,8.55-2.92,18.22-.82,23.27,6.58a29,29,0,0,1,5,15C600.63,135.61,600.4,164.45,600.4,193.29Zm16.81-17.61c0-22.46-.07-44.93,0-67.4.07-15,8-24,21-24.24s22.19,8.73,22.29,23.26q.48,68.27,0,136.52c-.06,12.15-6.27,20.15-16.2,22.82-9.13,2.46-19.3-1.13-23.81-9.58a31.48,31.48,0,0,1-3.17-14C617,220.62,617.21,198.15,617.21,175.68ZM608.51,35.6c-5.92.3-11.35,2.4-17.36,4.38-10.27,3.38-21.46,4.69-29-4.66a21.88,21.88,0,0,1-.33-27.16,22.17,22.17,0,0,1,25.31-6.62C598,5.91,608.24,9.86,620,6c5-1.65,9.62-4.56,14.81-5.57,16.44-3.22,30.24,14.1,23.52,29.41A21.61,21.61,0,0,1,638.9,42.66c-8-.07-15.26-4.73-23.1-6.45A27.57,27.57,0,0,0,608.51,35.6Zm341.92,128c-.54-7.6-2.83-13.22-10.78-13.9-6.46-.56-11.15,2.81-11.63,8.94-.44,5.66-4.89,4.42-7.31,6.54-3.32,2.91-7.64,7.21-7.53,10.8s5,7.21,8.19,10.33c1.19,1.15,3.71.92,5.88,1.36.16,7.62,2.49,13.63,11,13.94,9.58.35,11.5-6.74,12.46-14.45,7.3-.58,13.6-2.35,13.82-11.13C964.76,166.78,958.32,164.66,950.43,163.58Zm-584.86-2.64a97.16,97.16,0,1,1-97.14-97.15A97.15,97.15,0,0,1,365.57,160.94Zm-41.86,0a55.29,55.29,0,1,0-55.29,55.3A55.29,55.29,0,0,0,323.71,160.94Z"/></g></g></svg>